HIERARCHY
ROOT Hips
{
	OFFSET 0.00000 0.00000 0.00000
	CHANNELS 6 Xposition Yposition Zposition Zrotation Yrotation Xrotation 
	JOINT LHipJoint
	{
		OFFSET 0 0 0
		CHANNELS 3 Zrotation Yrotation Xrotation
		JOINT LeftUpLeg
		{
			OFFSET 1.38615 -1.80049 0.80104
			CHANNELS 3 Zrotation Yrotation Xrotation
			JOINT LeftLeg
			{
				OFFSET 2.50172 -6.87341 0.00000
				CHANNELS 3 Zrotation Yrotation Xrotation
				JOINT LeftFoot
				{
					OFFSET 2.67523 -7.35014 0.00000
					CHANNELS 3 Zrotation Yrotation Xrotation
					JOINT LeftToeBase
					{
						OFFSET 0.17446 -0.47932 2.13155
						CHANNELS 3 Zrotation Yrotation Xrotation
						End Site
						{
							OFFSET 0.00000 -0.00000 1.10023
						}
					}
				}
			}
		}
	}
	JOINT RHipJoint
	{
		OFFSET 0 0 0
		CHANNELS 3 Zrotation Yrotation Xrotation
		JOINT RightUpLeg
		{
			OFFSET -1.18047 -1.80049 0.80104
			CHANNELS 3 Zrotation Yrotation Xrotation
			JOINT RightLeg
			{
				OFFSET -2.59789 -7.13765 0.00000
				CHANNELS 3 Zrotation Yrotation Xrotation
				JOINT RightFoot
				{
					OFFSET -2.62125 -7.20183 0.00000
					CHANNELS 3 Zrotation Yrotation Xrotation
					JOINT RightToeBase
					{
						OFFSET -0.31287 -0.85960 2.07814
						CHANNELS 3 Zrotation Yrotation Xrotation
						End Site
						{
							OFFSET -0.00000 -0.00000 1.11766
						}
					}
				}
			}
		}
	}
	JOINT LowerBack
	{
		OFFSET 0 0 0
		CHANNELS 3 Zrotation Yrotation Xrotation
		JOINT Spine
		{
			OFFSET -0.01587 2.16157 -0.12309
			CHANNELS 3 Zrotation Yrotation Xrotation
			JOINT Spine1
			{
				OFFSET 0.04727 2.16674 -0.03569
				CHANNELS 3 Zrotation Yrotation Xrotation
				JOINT Neck
				{
					OFFSET 0 0 0
					CHANNELS 3 Zrotation Yrotation Xrotation
					JOINT Neck1
					{
						OFFSET -0.08586 1.60335 0.32783
						CHANNELS 3 Zrotation Yrotation Xrotation
						JOINT Head
						{
							OFFSET 0.07583 1.65857 -0.31618
							CHANNELS 3 Zrotation Yrotation Xrotation
							End Site
							{
								OFFSET 0.03386 1.69434 -0.14584
							}
						}
					}
				}
				JOINT LeftShoulder
				{
					OFFSET 0 0 0
					CHANNELS 3 Zrotation Yrotation Xrotation
					JOINT LeftArm
					{
						OFFSET 3.17393 1.01901 -0.52897
						CHANNELS 3 Zrotation Yrotation Xrotation
						JOINT LeftForeArm
						{
							OFFSET 5.25287 -0.00000 -0.00000
							CHANNELS 3 Zrotation Yrotation Xrotation
							JOINT LeftHand
							{
								OFFSET 3.51014 -0.00000 0.00000
								CHANNELS 3 Zrotation Yrotation Xrotation
								JOINT LeftFingerBase
								{
									OFFSET 0 0 0
									CHANNELS 3 Zrotation Yrotation Xrotation
									JOINT LeftHandIndex1
									{
										OFFSET 0.70618 -0.00000 -0.00000
										CHANNELS 3 Zrotation Yrotation Xrotation
										End Site
										{
											OFFSET 0.56934 -0.00000 -0.00000
										}
									}
								}
								JOINT LThumb
								{
									OFFSET 0 0 0
									CHANNELS 3 Zrotation Yrotation Xrotation
									End Site
									{
										OFFSET 0.57803 -0.00000 0.57803
									}
								}
							}
						}
					}
				}
				JOINT RightShoulder
				{
					OFFSET 0 0 0
					CHANNELS 3 Zrotation Yrotation Xrotation
					JOINT RightArm
					{
						OFFSET -2.99471 1.26495 -0.61125
						CHANNELS 3 Zrotation Yrotation Xrotation
						JOINT RightForeArm
						{
							OFFSET -5.28721 -0.00000 -0.00000
							CHANNELS 3 Zrotation Yrotation Xrotation
							JOINT RightHand
							{
								OFFSET -3.50544 -0.00000 0.00000
								CHANNELS 3 Zrotation Yrotation Xrotation
								JOINT RightFingerBase
								{
									OFFSET 0 0 0
									CHANNELS 3 Zrotation Yrotation Xrotation
									JOINT RightHandIndex1
									{
										OFFSET -0.88500 -0.00000 -0.00000
										CHANNELS 3 Zrotation Yrotation Xrotation
										End Site
										{
											OFFSET -0.71351 -0.00000 -0.00000
										}
									}
								}
								JOINT RThumb
								{
									OFFSET 0 0 0
									CHANNELS 3 Zrotation Yrotation Xrotation
									End Site
									{
										OFFSET -0.72440 -0.00000 0.72440
									}
								}
							}
						}
					}
				}
			}
		}
	}
}
MOTION
Frames: 16
Frame Time: .0083333
0.4962 18.5026 37.8493 0 0 0 0 0 0 -21 0 0 0 0 0 0 0 0 0 0 0 0 0 0 21 0 0 0 0 0 0 0 0 0 0 0 0 0 0 0 0 0 0 0 0 0 0 -16 0 0 21 0 0 11 0 0 0 -8 0 0 0 0 0 0 0 0 0 0 0 0 0 0 0 0 0 0 0 0 8 0 0 0 0 0 0 0 0 0 0 0 0 0 0 0 0 0
0.4962 18.5026 37.8493 178.3260 2.0741 -172.1570 0.0000 0.0000 0.0000 -26.8581 2.2895 -11.0938 1.4310 7.5637 21.3966 0.6374 -9.5937 -14.7706 0.2703 -3.3446 -9.2396 0.0000 0.0000 0.0000 13.9362 6.7618 -35.7725 -6.0084 -14.4365 45.0156 -0.5041 -6.5868 -17.4206 -0.0320 1.1554 -3.1765 -6.1233 -1.2470 0.3440 1.6391 -1.6917 -0.3361 5.1416 -0.8275 -0.3130 -10.4733 -6.5833 -16.7214 2.8281 -5.2887 32.3019 2.1994 -2.5164 14.3189 -0.0000 -0.0000 0.0000 -83.6989 -4.4146 28.7398 22.2612 -33.2709 -6.7286 -0.0000 -0.0000 1.3089 4.9016 33.3879 2.7020 -7.1250 0.0000 -0.0000 -32.0325 60.5145 -12.8831 -0.0000 -0.0000 0.0000 86.9737 -2.8982 14.3335 -17.5369 27.5602 -4.3328 0.0000 -0.0000 -6.4913 -11.8192 12.6512 -2.6241 7.1250 -0.0000 -0.0000 10.6890 -17.1997 7.1769
0.5150 18.5125 37.7623 179.3020 2.0351 -171.9440 0.0000 0.0000 0.0000 -25.6656 2.2390 -11.0934 1.4402 7.5871 21.4668 0.6620 -9.4914 -14.9903 0.3369 -3.7299 -10.3179 0.0000 0.0000 0.0000 15.1199 7.8902 -35.7009 -5.3187 -13.7339 42.1820 -0.4282 -7.3530 -17.1902 -0.0106 0.6656 -1.8291 -5.3532 -1.1687 0.7560 1.9714 -1.6001 -0.4944 5.0640 -0.7644 -0.7308 -10.3690 -6.7829 -16.7818 2.6610 -5.5610 32.3318 2.0621 -2.6464 14.3588 0.0000 0.0000 0.0000 -83.4748 -4.6896 28.7547 22.6932 -33.7516 -6.9671 -0.0000 -0.0000 1.1194 5.2458 33.4108 2.8941 -7.1250 0.0000 -0.0000 -31.7114 60.6157 -12.8153 0.0000 0.0000 0.0000 86.8159 -3.2215 14.9007 -17.8353 27.9457 -4.4718 0.0000 -0.0000 -6.9975 -11.3555 12.2041 -2.4310 7.1250 -0.0000 -0.0000 11.0218 -17.6743 7.2920
0.5258 18.5191 37.6459 179.3460 2.0801 -171.8620 0.0000 0.0000 0.0000 -25.5829 2.5483 -10.5171 1.3636 7.3909 20.8787 0.6618 -9.6715 -15.0292 0.3212 -3.6428 -10.0738 0.0000 0.0000 0.0000 15.2343 8.4584 -35.6414 -4.7223 -13.0641 39.6089 -0.3613 -7.5952 -16.5945 -0.0011 0.2125 -0.5839 -5.4209 -1.0544 0.3714 1.9732 -1.4241 -0.1385 5.0898 -0.7029 -0.1684 -10.2130 -6.9386 -17.1830 2.6815 -5.8757 32.1536 1.9706 -2.7798 14.3840 0.0000 0.0000 0.0000 -83.0855 -5.9385 29.2033 22.8694 -33.9457 -7.0652 -0.0000 -0.0000 0.8651 5.4545 34.5368 3.0987 -7.1250 0.0000 -0.0000 -32.6650 61.6064 -14.0234 0.0000 0.0000 0.0000 86.9487 -2.4692 14.1767 -17.5766 27.6116 -4.3512 0.0000 -0.0000 -6.6184 -11.1674 12.8340 -2.5109 7.1250 -0.0000 -0.0000 11.1320 -17.0566 7.5214
0.5258 18.5189 37.5147 179.1400 2.0554 -171.6840 0.0000 0.0000 0.0000 -25.8169 2.8999 -10.0414 1.2966 7.2143 20.3519 0.6619 -9.9924 -15.1060 0.2829 -3.4209 -9.4528 0.0000 0.0000 0.0000 15.1172 8.5581 -35.7023 -4.1277 -12.3284 36.9037 -0.2748 -8.1310 -16.0103 -0.0020 0.2895 -0.7955 -5.6297 -1.0131 0.3009 1.9622 -1.3684 -0.2547 5.1971 -0.6693 -0.2513 -10.1694 -7.0127 -16.9993 2.5445 -5.9764 32.0197 1.8908 -2.8382 14.2847 0.0000 0.0000 0.0000 -82.9024 -6.0708 29.3796 23.3693 -34.4901 -7.3463 -0.0000 -0.0000 0.8063 5.7947 35.3245 3.3581 -7.1250 0.0000 -0.0000 -33.1850 62.3427 -14.8533 0.0000 0.0000 0.0000 87.1123 -2.1316 13.4359 -17.1968 27.1165 -4.1767 0.0000 -0.0000 -5.8213 -11.4725 13.4046 -2.6938 7.1250 -0.0000 -0.0000 10.9078 -16.4682 7.5067
0.5233 18.5103 37.3876 179.0750 1.8193 -171.4220 0.0000 0.0000 0.0000 -25.8890 3.1221 -9.5022 1.1971 6.9423 19.5447 0.6429 -10.2071 -14.9752 0.2830 -3.4215 -9.4545 0.0000 0.0000 0.0000 15.2704 8.4393 -36.0323 -3.5886 -11.5919 34.3031 -0.1391 -9.1854 -15.3134 -0.0216 0.9483 -2.6066 -5.4209 -1.1872 1.1007 1.9612 -1.6474 -1.0290 5.1098 -0.7491 -1.4691 -10.4003 -7.0003 -16.6414 2.4837 -5.7799 32.5501 1.9632 -2.7560 14.4425 -0.0000 -0.0000 0.0000 -82.8132 -4.8966 28.7544 24.1028 -35.2728 -7.7658 -0.0000 -0.0000 0.8812 5.6967 35.8791 3.3460 -7.1250 0.0000 -0.0000 -33.9175 62.7718 -15.5646 -0.0000 -0.0000 0.0000 87.1259 -3.0529 14.0495 -17.1963 27.1158 -4.1764 0.0000 -0.0000 -5.6330 -12.3926 12.6521 -2.7554 7.1250 -0.0000 -0.0000 10.2940 -17.1630 6.9111
0.5254 18.5045 37.2603 178.9020 1.6673 -171.2810 0.0000 0.0000 0.0000 -26.0699 3.4060 -8.7798 1.0924 6.6422 18.6597 0.6185 -10.2907 -14.7590 0.2802 -3.4047 -9.4077 0.0000 0.0000 0.0000 15.3276 8.3975 -36.2113 -3.1074 -10.8669 31.8324 -0.0360 -9.4422 -14.0594 -0.0058 0.4923 -1.3528 -5.6246 -1.2058 0.6792 1.9585 -1.6519 -0.8177 5.2082 -0.7707 -1.0080 -10.4892 -7.0720 -16.7585 2.7132 -5.9408 32.5241 2.0387 -2.8098 14.4820 -0.0000 -0.0000 0.0000 -82.6286 -5.6805 28.6197 24.3032 -35.4833 -7.8819 -0.0000 -0.0000 0.7686 5.3490 36.4706 3.1855 -7.1250 0.0000 -0.0000 -34.9696 63.1602 -16.4279 -0.0000 -0.0000 0.0000 86.9683 -2.9690 14.4906 -17.3689 27.3415 -4.2554 0.0000 -0.0000 -6.0768 -12.7340 12.0257 -2.6957 7.1250 -0.0000 -0.0000 10.0726 -17.7715 6.6210
0.5237 18.5024 37.1357 178.8180 1.9230 -170.9720 0.0000 0.0000 0.0000 -26.2704 3.9087 -8.2608 0.9774 6.2935 17.6385 0.5957 -10.1517 -14.4969 0.3205 -3.6390 -10.0631 0.0000 0.0000 0.0000 15.3420 8.6832 -36.4638 -2.6870 -10.1702 29.5298 -0.0361 -8.7420 -13.1142 -0.0018 -0.2714 0.7456 -5.6401 -1.0497 0.2322 1.8881 -1.4190 -0.7610 5.1308 -0.6647 -0.7304 -10.5014 -7.1396 -16.6712 2.8793 -6.1222 32.3809 2.0746 -2.8714 14.4186 -0.0000 -0.0000 0.0000 -82.2435 -6.4912 29.0089 24.2079 -35.3833 -7.8266 -0.0000 -0.0000 0.5242 5.1441 36.3324 3.0530 -7.1250 0.0000 -0.0000 -35.0097 62.9952 -16.3142 -0.0000 -0.0000 0.0000 86.9678 -3.0154 14.5816 -17.5502 27.5774 -4.3390 0.0000 -0.0000 -6.2542 -12.2485 12.3989 -2.6688 7.1250 -0.0000 -0.0000 10.3995 -17.4261 6.9234
0.5239 18.4961 37.0071 178.8040 1.9891 -170.7450 0.0000 0.0000 0.0000 -26.3589 4.4134 -7.6019 0.8639 5.9267 16.5720 0.5871 -10.1497 -14.4105 0.4170 -4.1448 -11.4844 0.0000 0.0000 0.0000 15.2912 9.0879 -36.4926 -2.3256 -9.5137 27.4159 -0.0628 -8.1623 -12.8212 -0.0001 -0.0616 0.1692 -5.6152 -0.9292 0.3053 1.8564 -1.2629 -0.9113 5.0865 -0.5751 -0.9482 -10.1249 -7.3227 -16.6863 2.5916 -6.4219 32.3776 1.8378 -2.9943 14.4132 -0.0000 -0.0000 0.0000 -81.9240 -6.5825 29.3882 24.4694 -35.6567 -7.9785 -0.0000 -0.0000 0.3801 5.1336 35.6512 2.9974 -7.1250 0.0000 -0.0000 -34.2222 62.4412 -15.4561 -0.0000 -0.0000 0.0000 87.1498 -3.2190 14.6419 -17.8223 27.9291 -4.4657 0.0000 -0.0000 -6.4033 -11.9818 12.2528 -2.5788 7.1250 -0.0000 -0.0000 10.5876 -17.5889 7.0145
0.5284 18.4958 36.8653 178.5360 1.1671 -171.0290 0.0000 0.0000 0.0000 -26.4406 4.6653 -6.2868 0.7748 5.6202 15.6863 0.5669 -10.7647 -14.3870 0.4328 -4.2219 -11.7019 0.0000 0.0000 0.0000 14.9259 9.0455 -35.8626 -2.0210 -8.9097 25.5132 -0.1061 -7.9080 -13.2508 -0.0068 0.5316 -1.4607 -5.6458 -1.2856 0.5996 1.7809 -1.7570 -0.7078 5.0315 -0.8333 -0.8409 -9.5257 -7.3871 -17.0007 2.1390 -6.5877 32.2256 1.5089 -3.0724 14.3730 0.0000 0.0000 0.0000 -81.5907 -6.6962 29.0068 25.0033 -36.2074 -8.2919 -0.0000 -0.0000 0.1895 5.4725 35.5492 3.1881 -7.1250 0.0000 -0.0000 -33.7644 62.4448 -15.2262 0.0000 0.0000 0.0000 87.3461 -2.8116 15.0911 -17.9389 28.0788 -4.5204 0.0000 -0.0000 -6.4647 -12.2511 11.7510 -2.5321 7.1250 -0.0000 -0.0000 10.4151 -18.0763 6.7826
0.5361 18.4949 36.7274 178.3950 0.4781 -171.2400 0.0000 0.0000 0.0000 -26.3904 4.8519 -5.0350 0.6872 5.2998 14.7655 0.5170 -11.2073 -14.0337 0.4307 -4.2118 -11.6733 0.0000 0.0000 0.0000 14.6559 9.1767 -35.3368 -1.7884 -8.4106 23.9683 -0.1908 -7.3980 -14.0304 -0.0401 1.2931 -3.5557 -6.0337 -1.3711 0.8526 2.0429 -1.8885 -0.8904 5.5371 -0.8793 -1.1346 -10.4803 -7.2936 -16.1386 2.7397 -6.3180 32.3549 1.9934 -2.9586 14.3008 -0.0000 -0.0000 0.0000 -81.7870 -6.7171 29.5636 25.0543 -36.2594 -8.3220 -0.0000 0.0000 -0.0520 6.0400 36.0605 3.5640 -7.1250 0.0000 -0.0000 -33.7822 63.0090 -15.6827 -0.0000 -0.0000 0.0000 86.8597 -3.5995 15.2890 -18.2287 28.4490 -4.6577 0.0000 -0.0000 -6.8835 -12.4211 11.7191 -2.5615 7.1250 -0.0000 -0.0000 10.2979 -18.0986 6.6985
0.5396 18.4855 36.5961 178.2630 0.3033 -171.1570 0.0000 0.0000 0.0000 -26.5020 4.9453 -4.1466 0.6088 4.9940 13.8913 0.4800 -11.1990 -13.6578 0.4199 -4.1592 -11.5249 0.0000 0.0000 0.0000 14.5251 9.2503 -35.3560 -1.6146 -8.0125 22.7520 -0.2897 -6.4883 -14.5792 -0.1253 2.2818 -6.2851 -6.0354 -1.3681 1.2376 1.9469 -1.9106 -0.9133 5.4498 -0.8823 -1.3748 -10.4042 -7.1629 -17.1559 3.0363 -6.1278 32.9322 2.1252 -2.8177 14.7802 -0.0000 0.0000 0.0000 -81.3160 -7.6875 29.7918 24.6878 -35.8832 -8.1062 -0.0000 0.0000 -0.1939 6.1411 35.8730 3.6077 -7.1250 0.0000 -0.0000 -33.4603 62.8821 -15.4160 -0.0000 0.0000 0.0000 86.7770 -3.9650 15.8971 -18.5375 28.8400 -4.8057 0.0000 -0.0000 -7.3979 -12.2162 11.8246 -2.5403 7.1250 -0.0000 -0.0000 10.4373 -18.0045 6.8143
0.5292 18.4735 36.4635 177.5320 0.1496 -170.9050 0.0000 0.0000 0.0000 -27.3355 5.0057 -3.4773 0.5439 4.7251 13.1262 0.4596 -11.2305 -13.4603 0.3863 -3.9912 -11.0520 0.0000 0.0000 0.0000 14.0517 8.3953 -36.0815 -1.5147 -7.7723 22.0245 -0.3973 -5.0799 -14.8615 -0.2937 3.4848 -9.6316 -6.2778 -1.4522 1.5013 1.6645 -2.0758 -1.3952 5.3134 -0.9354 -2.0028 -10.7075 -7.1650 -16.6861 3.1989 -6.0422 33.2376 2.2826 -2.7693 14.8336 0.0000 0.0000 0.0000 -81.0748 -7.0795 29.7577 24.8565 -36.0570 -8.2053 -0.0000 0.0000 -0.1019 5.7715 34.9293 3.3121 -7.1250 0.0000 -0.0000 -32.7702 62.0107 -14.3885 0.0000 0.0000 0.0000 86.7344 -4.7110 15.9334 -18.4833 28.7716 -4.7796 0.0000 -0.0000 -7.3578 -12.1718 11.9553 -2.5583 7.1250 -0.0000 -0.0000 10.4643 -17.8759 6.8628
0.5415 18.4605 36.3272 177.7470 0.2399 -171.0420 0.0000 0.0000 0.0000 -26.9963 5.4730 -2.5764 0.4889 4.4834 12.4408 0.4623 -11.0866 -13.4368 0.4058 -4.0896 -11.3290 0.0000 0.0000 0.0000 14.3067 9.0400 -35.9691 -1.4838 -7.6960 21.7946 -0.5046 -4.8318 -16.0588 -0.4073 4.0972 -11.3502 -6.1489 -1.3818 0.3218 1.7195 -1.8721 -0.4755 5.2413 -0.9100 -0.4168 -10.7486 -7.3135 -16.8501 3.4478 -6.4465 32.6150 2.2928 -2.9530 14.6288 0.0000 -0.0000 0.0000 -80.8248 -8.1009 29.7838 25.1917 -36.3993 -8.4034 -0.0000 0.0000 -0.0972 5.9355 34.5645 3.3756 -7.1250 0.0000 -0.0000 -32.2097 61.7490 -13.9137 0.0000 -0.0000 0.0000 86.9853 -2.7302 14.8656 -17.8536 27.9693 -4.4804 0.0000 -0.0000 -6.5849 -11.8974 12.0874 -2.5262 7.1250 -0.0000 -0.0000 10.6507 -17.7596 7.0171
0.5441 18.4442 36.2000 177.4930 -0.0018 -170.9210 0.0000 0.0000 0.0000 -27.1949 5.5617 -1.7741 0.4335 4.2252 11.7110 0.4412 -11.1557 -13.2424 0.4511 -4.3089 -11.9473 0.0000 0.0000 0.0000 13.9940 9.0483 -36.3681 -1.5112 -7.7636 21.9982 -0.6121 -4.2946 -16.9651 -0.3578 3.8427 -10.6346 -6.2944 -1.4858 -0.3038 1.6015 -1.9607 0.1434 5.1714 -1.0066 0.5868 -10.5649 -7.2357 -17.8979 3.8343 -6.5069 32.6119 2.3829 -2.9243 14.8690 0.0000 -0.0000 0.0000 -80.5233 -9.2257 29.5051 25.3574 -36.5670 -8.5019 -0.0000 0.0000 -0.0342 5.9995 34.8662 3.4381 -7.1250 0.0000 -0.0000 -32.4708 62.0158 -14.2454 0.0000 -0.0000 0.0000 87.2686 -1.0876 14.6255 -17.4875 27.4959 -4.3100 0.0000 -0.0000 -6.1570 -11.2720 12.0813 -2.3887 7.1250 -0.0000 -0.0000 11.0836 -17.8016 7.3027
0.5445 18.4314 36.0733 177.2990 -0.2466 -170.7440 0.0000 0.0000 0.0000 -27.3666 5.5118 -1.2156 0.4047 4.0843 11.3139 0.4180 -11.1314 -12.9898 0.5060 -4.5600 -12.6578 0.0000 0.0000 0.0000 13.9185 8.6893 -36.8397 -1.5525 -7.8641 22.3020 -0.6378 -3.8385 -16.9678 -0.2705 3.3453 -9.2417 -6.2456 -1.4773 0.7946 1.5533 -2.0385 -0.6386 5.1399 -0.9759 -0.8314 -10.3675 -7.4427 -17.5166 3.2852 -6.6674 32.8172 2.1058 -3.0263 14.8616 -0.0000 0.0000 0.0000 -80.4799 -8.3829 29.6604 25.5191 -36.7299 -8.5984 -0.0000 0.0000 -0.1490 5.4238 35.3124 3.1414 -7.1250 0.0000 -0.0000 -33.5457 62.2385 -14.9522 -0.0000 0.0000 0.0000 87.0379 -2.6631 15.4629 -17.9776 28.1285 -4.5387 0.0000 -0.0000 -7.0504 -11.2768 11.9035 -2.3552 7.1250 -0.0000 -0.0000 11.0863 -17.9788 7.2605
